<svg width="837" height="438" viewBox="0 0 837 438" fill="none" xmlns="http://www.w3.org/2000/svg">
<g clip-path="url(#clip0)">
<path d="M812.404 234.608C811.121 233.867 810.016 232.853 809.168 231.638C808.319 230.424 807.746 229.037 807.491 227.578C807.236 226.118 807.304 224.62 807.69 223.189C808.076 221.758 808.771 220.43 809.726 219.296L799.156 142.033L821.175 143.113L824.632 218.477C826.43 220.207 827.531 222.538 827.725 225.026C827.919 227.514 827.193 229.987 825.686 231.975C824.178 233.964 821.994 235.331 819.546 235.816C817.098 236.301 814.557 235.872 812.404 234.608V234.608Z" fill="#A0616A"/>
<path d="M824.198 144.138C823.746 144.669 823.168 145.078 822.517 145.327L802.729 152.879C801.735 153.258 800.633 153.242 799.651 152.834C798.668 152.426 797.88 151.656 797.448 150.685L779.919 111.292C778.236 107.637 777.949 103.493 779.114 99.6425C779.974 96.894 781.56 94.4286 783.705 92.506C785.849 90.5835 788.473 89.275 791.299 88.7185C793.472 88.2712 795.717 88.3029 797.877 88.8115C800.465 89.3884 802.868 90.6016 804.869 92.3412C806.87 94.0808 808.406 96.2919 809.338 98.7745L824.923 139.975C825.184 140.67 825.255 141.423 825.127 142.155C825 142.887 824.679 143.571 824.198 144.138V144.138Z" fill="#CCCCCC"/>
<path d="M721.082 423.193H707.391L702.425 370.136L721.082 370.386V423.193Z" fill="#A0616A"/>
<path d="M697.612 419.282H724.012V435.907H680.984C680.984 431.497 682.735 427.269 685.853 424.151C688.971 421.033 693.199 419.282 697.609 419.282H697.612Z" fill="#2F2E41"/>
<path d="M784.735 423.194H771.044L764.531 370.386H784.737L784.735 423.194Z" fill="#A0616A"/>
<path d="M761.265 419.282H787.665V435.907H744.637C744.637 431.497 746.389 427.269 749.507 424.151C752.625 421.033 756.853 419.282 761.262 419.282H761.265Z" fill="#2F2E41"/>
<path d="M786.457 404.405L764.957 402.813C763.734 402.722 762.585 402.188 761.728 401.309C760.87 400.431 760.364 399.27 760.302 398.045L755.508 298.957C755.462 298.006 755.071 297.105 754.408 296.422C753.745 295.739 752.855 295.322 751.906 295.248C750.958 295.175 750.014 295.45 749.254 296.022C748.493 296.594 747.968 297.424 747.775 298.357L727.775 395.967C727.528 397.168 726.85 398.238 725.87 398.974C724.889 399.711 723.674 400.064 722.452 399.967L703.013 398.413C702.356 398.36 701.715 398.178 701.127 397.878C700.539 397.578 700.017 397.165 699.589 396.662C699.161 396.16 698.836 395.578 698.633 394.951C698.43 394.323 698.352 393.661 698.405 393.003C698.407 392.97 698.41 392.937 698.413 392.905L716.447 212.579C716.517 211.874 716.736 211.192 717.088 210.577C717.441 209.963 717.919 209.43 718.492 209.014C719.065 208.597 719.72 208.307 720.413 208.161C721.106 208.015 721.822 208.018 722.514 208.169L791.088 223.075C792.223 223.325 793.238 223.959 793.959 224.87C794.68 225.781 795.064 226.914 795.046 228.076L791.853 399.487C791.827 400.802 791.289 402.054 790.352 402.976C789.415 403.897 788.154 404.416 786.84 404.419C786.712 404.418 786.585 404.413 786.457 404.405Z" fill="#2F2E41"/>
<path d="M767.646 61.8055C782.794 61.8055 795.074 49.5256 795.074 34.3775C795.074 19.2295 782.794 6.94952 767.646 6.94952C752.497 6.94952 740.218 19.2295 740.218 34.3775C740.218 49.5256 752.497 61.8055 767.646 61.8055Z" fill="#A0616A"/>
<path d="M725.09 226.486C722.452 224.122 720.358 221.213 718.952 217.962C717.546 214.71 716.861 211.193 716.945 207.652C716.945 168.23 751.068 80.1515 752.137 77.4085C752.237 76.7465 753.136 76.4605 757.864 73.2695C762.592 70.0785 769.407 69.5855 778.122 71.8115C779.007 72.0383 779.814 72.5037 780.454 73.1571C781.094 73.8105 781.542 74.627 781.751 75.5175L783.372 77.8595C783.513 78.4539 783.792 79.0067 784.186 79.4735C784.581 79.9402 785.079 80.3077 785.642 80.5465C792.67 83.5075 815.01 97.1615 807.397 148.546C800.326 196.279 797.456 224.347 796.551 234.206C796.444 235.375 795.931 236.47 795.1 237.299C794.269 238.129 793.173 238.641 792.004 238.745C788.558 239.053 782.644 239.465 775.604 239.465C759.269 239.46 736.872 237.26 725.09 226.486Z" fill="#CCCCCC"/>
<path d="M692.315 211.881C691.662 210.551 691.309 209.093 691.281 207.611C691.253 206.129 691.55 204.659 692.152 203.305C692.753 201.95 693.645 200.744 694.763 199.771C695.881 198.799 697.199 198.083 698.623 197.674L732.899 127.627L750.581 140.794L711.459 205.299C711.988 207.739 711.604 210.287 710.378 212.462C709.153 214.636 707.173 216.285 704.813 217.097C702.453 217.908 699.877 217.826 697.573 216.864C695.27 215.903 693.4 214.13 692.317 211.881H692.315Z" fill="#A0616A"/>
<path d="M752.517 143.332C751.846 143.523 751.138 143.54 750.459 143.384L729.819 138.629C728.782 138.39 727.876 137.763 727.288 136.877C726.699 135.991 726.473 134.912 726.656 133.864L734.056 91.3865C734.694 87.4144 736.765 83.8137 739.878 81.2645C742.124 79.462 744.815 78.2987 747.667 77.8973C750.519 77.4958 753.426 77.8711 756.083 78.9835C758.136 79.8229 759.983 81.0999 761.493 82.7255C763.32 84.6467 764.64 86.9932 765.332 89.5527C766.024 92.1123 766.067 94.8041 765.458 97.3845L755.441 140.276C755.27 141.001 754.909 141.666 754.395 142.203C753.881 142.741 753.232 143.13 752.516 143.332H752.517Z" fill="#CCCCCC"/>
<path d="M761.223 59.1595C759.889 57.7977 758.903 56.1331 758.351 54.3079C757.799 52.4826 757.696 50.5509 758.052 48.6775C759.008 43.6775 759.57 40.4025 759.677 39.2115C760.041 35.1385 755.923 31.8405 751.849 31.3115C751.691 31.2905 751.559 31.2775 751.449 31.2685C751.549 31.3685 751.664 31.4745 751.762 31.5685C752.536 32.2955 753.499 33.2005 753.27 34.1345C753.132 34.6965 752.618 35.0955 751.699 35.3525C745.327 37.1355 740.419 35.4985 736.254 30.1975C735.084 28.6911 734.279 26.9332 733.903 25.0625C732.411 17.7425 736.386 11.5025 739.984 7.5575C742.951 4.3045 747.76 0.357495 753.825 0.0174954C758.541 -0.245505 764.15 2.46849 765.825 7.35949C766.617 6.18744 767.671 5.21581 768.903 4.52154C770.136 3.82727 771.513 3.42942 772.925 3.35949C776.146 3.28967 779.315 4.17112 782.036 5.8935C795.336 13.5115 801.051 31.6595 794.517 45.5235C790.407 54.2445 781.502 60.7365 771.278 62.4665C770.638 62.5752 769.991 62.63 769.341 62.6305C767.824 62.6279 766.322 62.3195 764.926 61.7239C763.53 61.1282 762.268 60.2574 761.216 59.1635L761.223 59.1595Z" fill="#2F2E41"/>
<path d="M363.659 195.569C363.083 194.2 362.117 193.029 360.882 192.203C359.646 191.376 358.196 190.93 356.709 190.919H217.984C215.99 190.921 214.078 191.713 212.668 193.123C211.258 194.533 210.466 196.445 210.464 198.439V373.939C210.466 375.934 211.258 377.846 212.668 379.256C214.078 380.666 215.99 381.458 217.984 381.46H356.714C358.708 381.457 360.619 380.664 362.029 379.254C363.439 377.844 364.232 375.933 364.234 373.939V198.439C364.238 197.454 364.044 196.479 363.664 195.569H363.659ZM362.559 373.939C362.558 375.49 361.941 376.977 360.844 378.074C359.747 379.171 358.26 379.788 356.709 379.79H217.984C216.433 379.789 214.946 379.173 213.849 378.076C212.752 376.979 212.135 375.492 212.134 373.941V198.44C212.137 196.89 212.754 195.403 213.85 194.306C214.947 193.21 216.434 192.593 217.984 192.59H356.714C357.883 192.595 359.023 192.947 359.99 193.603C360.958 194.258 361.707 195.187 362.144 196.271C362.23 196.486 362.303 196.707 362.364 196.93C362.497 197.423 362.564 197.931 362.564 198.44L362.559 373.939Z" fill="#3F3D56"/>
<path d="M334.71 232.355H292.924C292.037 232.355 291.187 232.002 290.56 231.375C289.933 230.748 289.581 229.898 289.581 229.012C289.581 228.125 289.933 227.275 290.56 226.648C291.187 226.021 292.037 225.669 292.924 225.669H334.71C335.596 225.669 336.446 226.021 337.073 226.648C337.7 227.275 338.053 228.125 338.053 229.012C338.053 229.898 337.7 230.748 337.073 231.375C336.446 232.002 335.596 232.355 334.71 232.355V232.355Z" fill="#3F3D56"/>
<path d="M334.71 249.905H292.924C292.037 249.905 291.187 249.552 290.56 248.925C289.933 248.298 289.581 247.448 289.581 246.562C289.581 245.675 289.933 244.825 290.56 244.198C291.187 243.571 292.037 243.219 292.924 243.219H334.71C335.596 243.219 336.446 243.571 337.073 244.198C337.7 244.825 338.053 245.675 338.053 246.562C338.053 247.448 337.7 248.298 337.073 248.925C336.446 249.552 335.596 249.905 334.71 249.905V249.905Z" fill="#3F3D56"/>
<path d="M334.419 285.841H239.984C239.097 285.841 238.247 285.488 237.62 284.861C236.993 284.234 236.641 283.384 236.641 282.498C236.641 281.611 236.993 280.761 237.62 280.134C238.247 279.507 239.097 279.155 239.984 279.155H334.419C334.859 279.155 335.293 279.241 335.699 279.409C336.104 279.577 336.473 279.823 336.783 280.134C337.094 280.444 337.34 280.813 337.508 281.218C337.676 281.624 337.763 282.059 337.763 282.498C337.763 282.937 337.676 283.371 337.508 283.777C337.34 284.182 337.094 284.551 336.783 284.861C336.473 285.172 336.104 285.418 335.699 285.586C335.293 285.754 334.859 285.841 334.419 285.841V285.841Z" fill="#CCCCCC"/>
<path d="M334.419 303.391H239.984C239.097 303.391 238.247 303.038 237.62 302.411C236.993 301.784 236.641 300.934 236.641 300.048C236.641 299.161 236.993 298.311 237.62 297.684C238.247 297.057 239.097 296.705 239.984 296.705H334.419C335.306 296.705 336.156 297.057 336.783 297.684C337.41 298.311 337.763 299.161 337.763 300.048C337.763 300.934 337.41 301.784 336.783 302.411C336.156 303.038 335.306 303.391 334.419 303.391V303.391Z" fill="#CCCCCC"/>
<path d="M334.419 320.941H239.984C239.097 320.941 238.247 320.588 237.62 319.961C236.993 319.334 236.641 318.484 236.641 317.598C236.641 316.711 236.993 315.861 237.62 315.234C238.247 314.607 239.097 314.255 239.984 314.255H334.419C335.306 314.255 336.156 314.607 336.783 315.234C337.41 315.861 337.763 316.711 337.763 317.598C337.763 318.484 337.41 319.334 336.783 319.961C336.156 320.588 335.306 320.941 334.419 320.941V320.941Z" fill="#CCCCCC"/>
<path d="M334.419 338.491H239.984C239.097 338.491 238.247 338.138 237.62 337.511C236.993 336.884 236.641 336.034 236.641 335.148C236.641 334.261 236.993 333.411 237.62 332.784C238.247 332.157 239.097 331.805 239.984 331.805H334.419C335.306 331.805 336.156 332.157 336.783 332.784C337.41 333.411 337.763 334.261 337.763 335.148C337.763 336.034 337.41 336.884 336.783 337.511C336.156 338.138 335.306 338.491 334.419 338.491V338.491Z" fill="#CCCCCC"/>
<path d="M334.419 356.041H239.984C239.097 356.041 238.247 355.688 237.62 355.061C236.993 354.434 236.641 353.584 236.641 352.698C236.641 351.811 236.993 350.961 237.62 350.334C238.247 349.707 239.097 349.355 239.984 349.355H334.419C335.306 349.355 336.156 349.707 336.783 350.334C337.41 350.961 337.763 351.811 337.763 352.698C337.763 353.584 337.41 354.434 336.783 355.061C336.156 355.688 335.306 356.041 334.419 356.041V356.041Z" fill="#CCCCCC"/>
<path d="M640.005 437.462H835.005C835.27 437.462 835.524 437.356 835.712 437.169C835.899 436.981 836.005 436.727 836.005 436.462C836.005 436.196 835.899 435.942 835.712 435.754C835.524 435.567 835.27 435.462 835.005 435.462H640.005C639.739 435.462 639.485 435.567 639.297 435.754C639.11 435.942 639.005 436.196 639.005 436.462C639.005 436.727 639.11 436.981 639.297 437.169C639.485 437.356 639.739 437.462 640.005 437.462Z" fill="#3F3D56"/>
<path d="M77.2965 101.635C89.3705 101.635 99.1585 91.8466 99.1585 79.7725C99.1585 67.6985 89.3705 57.9105 77.2965 57.9105C65.2224 57.9105 55.4344 67.6985 55.4344 79.7725C55.4344 91.8466 65.2224 101.635 77.2965 101.635Z" fill="#CCCCCC"/>
<path d="M75.1295 88.1115C74.6377 88.1124 74.159 87.9534 73.7655 87.6585L73.7415 87.6405L68.6035 83.7065C68.1368 83.3336 67.8349 82.7926 67.7626 82.1997C67.6902 81.6067 67.8531 81.009 68.2164 80.5348C68.5796 80.0606 69.1143 79.7476 69.7056 79.663C70.297 79.5785 70.8979 79.7291 71.3795 80.0825L74.7075 82.6345L82.5715 72.3785C82.9398 71.8982 83.4837 71.5839 84.0837 71.5047C84.6838 71.4255 85.2907 71.5878 85.7709 71.9561L85.7715 71.9565L85.7225 72.0225L85.7725 71.9575C86.2522 72.3264 86.566 72.8704 86.6452 73.4703C86.7243 74.0702 86.5622 74.677 86.1945 75.1576L76.9445 87.2215C76.7306 87.4996 76.4555 87.7246 76.1406 87.8791C75.8256 88.0337 75.4793 88.1135 75.1285 88.1125L75.1295 88.1115Z" fill="white"/>
<path d="M138.731 131.033C138.277 129.955 137.517 129.034 136.546 128.384C135.574 127.733 134.433 127.382 133.263 127.374H24.1024C22.5334 127.374 21.0288 127.998 19.9194 129.107C18.8099 130.217 18.1862 131.721 18.1854 133.291V271.384C18.1862 272.953 18.8099 274.457 19.9194 275.567C21.0288 276.676 22.5334 277.3 24.1024 277.301H133.263C134.832 277.298 136.336 276.674 137.445 275.565C138.554 274.456 139.178 272.952 139.18 271.384V133.291C139.183 132.515 139.03 131.748 138.731 131.033ZM137.866 271.385C137.864 272.604 137.379 273.772 136.516 274.635C135.654 275.497 134.486 275.982 133.266 275.985H24.1024C22.8824 275.985 21.7124 275.5 20.8497 274.637C19.9871 273.775 19.5024 272.605 19.5024 271.385V133.291C19.5048 132.071 19.9902 130.903 20.8524 130.04C21.7145 129.178 22.8832 128.693 24.1024 128.691H133.263C134.183 128.694 135.081 128.972 135.842 129.489C136.603 130.005 137.193 130.737 137.536 131.591C137.603 131.76 137.661 131.934 137.709 132.11C137.814 132.497 137.867 132.896 137.867 133.298L137.866 271.385Z" fill="#CCCCCC"/>
<path d="M115.948 159.978H83.0685C82.3709 159.978 81.7018 159.7 81.2085 159.207C80.7152 158.714 80.438 158.045 80.438 157.347C80.438 156.649 80.7152 155.98 81.2085 155.487C81.7018 154.994 82.3709 154.717 83.0685 154.717H115.948C116.645 154.717 117.314 154.994 117.808 155.487C118.301 155.98 118.578 156.649 118.578 157.347C118.578 158.045 118.301 158.714 117.808 159.207C117.314 159.7 116.645 159.978 115.948 159.978H115.948Z" fill="#CCCCCC"/>
<path d="M115.948 173.788H83.0685C82.3709 173.788 81.7018 173.51 81.2085 173.017C80.7152 172.524 80.438 171.855 80.438 171.157C80.438 170.459 80.7152 169.79 81.2085 169.297C81.7018 168.804 82.3709 168.526 83.0685 168.526H115.948C116.645 168.526 117.314 168.804 117.808 169.297C118.301 169.79 118.578 170.459 118.578 171.157C118.578 171.855 118.301 172.524 117.808 173.017C117.314 173.51 116.645 173.788 115.948 173.788H115.948Z" fill="#CCCCCC"/>
<path d="M66.1974 181.651H42.1694C41.3849 181.65 40.6327 181.338 40.078 180.783C39.5232 180.228 39.2112 179.476 39.2104 178.691V150.337C39.2112 149.552 39.5232 148.8 40.078 148.245C40.6327 147.69 41.3849 147.378 42.1694 147.378H66.1974C66.9819 147.379 67.7339 147.691 68.2886 148.245C68.8433 148.8 69.1554 149.552 69.1564 150.337V178.691C69.1557 179.476 68.8436 180.228 68.2889 180.783C67.7341 181.338 66.982 181.65 66.1974 181.651V181.651Z" fill="#CCCCCC"/>
<path d="M115.719 202.064H41.4125C40.7148 202.064 40.0458 201.786 39.5524 201.293C39.0591 200.8 38.782 200.131 38.782 199.433C38.782 198.735 39.0591 198.066 39.5524 197.573C40.0458 197.08 40.7148 196.802 41.4125 196.802H115.719C116.417 196.802 117.086 197.08 117.58 197.573C118.073 198.066 118.35 198.735 118.35 199.433C118.35 200.131 118.073 200.8 117.58 201.293C117.086 201.786 116.417 202.064 115.719 202.064V202.064Z" fill="#CCCCCC"/>
<path d="M115.719 215.878H41.4125C40.7148 215.878 40.0458 215.6 39.5524 215.107C39.0591 214.614 38.782 213.945 38.782 213.247C38.782 212.549 39.0591 211.88 39.5524 211.387C40.0458 210.894 40.7148 210.617 41.4125 210.617H115.719C116.417 210.617 117.086 210.894 117.58 211.387C118.073 211.88 118.35 212.549 118.35 213.247C118.35 213.945 118.073 214.614 117.58 215.107C117.086 215.6 116.417 215.878 115.719 215.878Z" fill="#CCCCCC"/>
<path d="M115.719 229.682H41.4125C40.7148 229.682 40.0458 229.405 39.5524 228.912C39.0591 228.419 38.782 227.75 38.782 227.052C38.782 226.354 39.0591 225.685 39.5524 225.192C40.0458 224.699 40.7148 224.422 41.4125 224.422H115.719C116.417 224.422 117.086 224.699 117.58 225.192C118.073 225.685 118.35 226.354 118.35 227.052C118.35 227.75 118.073 228.419 117.58 228.912C117.086 229.405 116.417 229.682 115.719 229.682V229.682Z" fill="#CCCCCC"/>
<path d="M115.719 243.495H41.4125C40.7148 243.495 40.0458 243.218 39.5524 242.725C39.0591 242.232 38.782 241.563 38.782 240.865C38.782 240.167 39.0591 239.498 39.5524 239.005C40.0458 238.512 40.7148 238.234 41.4125 238.234H115.719C116.417 238.234 117.086 238.512 117.58 239.005C118.073 239.498 118.35 240.167 118.35 240.865C118.35 241.563 118.073 242.232 117.58 242.725C117.086 243.218 116.417 243.495 115.719 243.495Z" fill="#CCCCCC"/>
<path d="M115.719 257.302H41.4125C40.7148 257.302 40.0458 257.024 39.5524 256.531C39.0591 256.038 38.782 255.369 38.782 254.671C38.782 253.973 39.0591 253.304 39.5524 252.811C40.0458 252.318 40.7148 252.041 41.4125 252.041H115.719C116.417 252.041 117.086 252.318 117.58 252.811C118.073 253.304 118.35 253.973 118.35 254.671C118.35 255.369 118.073 256.038 117.58 256.531C117.086 257.024 116.417 257.302 115.719 257.302Z" fill="#CCCCCC"/>
<path d="M0.791486 277.878H154.225C154.434 277.878 154.634 277.795 154.782 277.647C154.93 277.499 155.012 277.299 155.012 277.091C155.012 276.882 154.93 276.682 154.782 276.534C154.634 276.386 154.434 276.304 154.225 276.304H0.791486C0.688136 276.303 0.58568 276.323 0.489972 276.362C0.394265 276.401 0.307181 276.458 0.233686 276.531C0.160191 276.604 0.101736 276.69 0.0616429 276.785C0.0215502 276.88 0.000599704 276.983 1.26948e-05 277.086C-0.000574314 277.189 0.0192016 277.292 0.0582097 277.388C0.0972179 277.483 0.154704 277.57 0.227369 277.644C0.300033 277.717 0.386459 277.776 0.481717 277.816C0.576976 277.856 0.679194 277.877 0.782544 277.878H0.791486Z" fill="#CCCCCC"/>
<path d="M497.296 101.635C509.37 101.635 519.158 91.8466 519.158 79.7725C519.158 67.6985 509.37 57.9105 497.296 57.9105C485.222 57.9105 475.434 67.6985 475.434 79.7725C475.434 91.8466 485.222 101.635 497.296 101.635Z" fill="#CCCCCC"/>
<path d="M495.129 88.1115C494.638 88.1124 494.159 87.9534 493.765 87.6585L493.741 87.6405L488.603 83.7065C488.137 83.3336 487.835 82.7926 487.763 82.1997C487.69 81.6067 487.853 81.009 488.216 80.5348C488.58 80.0606 489.114 79.7476 489.706 79.663C490.297 79.5785 490.898 79.7291 491.379 80.0825L494.708 82.6345L502.572 72.3785C502.94 71.8982 503.484 71.5839 504.084 71.5047C504.684 71.4255 505.291 71.5878 505.771 71.9561L505.772 71.9565L505.723 72.0225L505.773 71.9575C506.252 72.3264 506.566 72.8704 506.645 73.4703C506.724 74.0702 506.562 74.677 506.194 75.1576L496.944 87.2215C496.731 87.4996 496.455 87.7246 496.141 87.8791C495.826 88.0337 495.479 88.1135 495.129 88.1125L495.129 88.1115Z" fill="white"/>
<path d="M558.731 131.033C558.277 129.955 557.517 129.034 556.546 128.384C555.574 127.733 554.433 127.382 553.263 127.374H444.102C442.533 127.374 441.029 127.998 439.919 129.107C438.81 130.217 438.186 131.721 438.185 133.291V271.384C438.186 272.953 438.81 274.457 439.919 275.567C441.029 276.676 442.533 277.3 444.102 277.301H553.263C554.832 277.298 556.336 276.674 557.445 275.565C558.554 274.456 559.178 272.952 559.18 271.384V133.291C559.183 132.515 559.03 131.748 558.731 131.033ZM557.866 271.385C557.864 272.604 557.379 273.772 556.517 274.635C555.654 275.497 554.486 275.982 553.266 275.985H444.102C443.498 275.985 442.9 275.866 442.342 275.634C441.784 275.403 441.277 275.064 440.85 274.637C440.423 274.21 440.084 273.703 439.853 273.145C439.621 272.587 439.502 271.989 439.502 271.385V271.385V133.291C439.505 132.071 439.99 130.903 440.852 130.04C441.715 129.178 442.883 128.693 444.102 128.691H553.263C554.183 128.694 555.081 128.972 555.842 129.489C556.603 130.005 557.193 130.737 557.536 131.591C557.603 131.76 557.661 131.934 557.709 132.11C557.814 132.497 557.867 132.896 557.867 133.298L557.866 271.385Z" fill="#CCCCCC"/>
<path d="M535.948 159.978H503.068C502.371 159.978 501.702 159.7 501.208 159.207C500.715 158.714 500.438 158.045 500.438 157.347C500.438 156.649 500.715 155.98 501.208 155.487C501.702 154.994 502.371 154.717 503.068 154.717H535.947C536.645 154.717 537.314 154.994 537.807 155.487C538.301 155.98 538.578 156.649 538.578 157.347C538.578 158.045 538.301 158.714 537.807 159.207C537.314 159.7 536.645 159.978 535.947 159.978H535.948Z" fill="#CCCCCC"/>
<path d="M535.948 173.788H503.068C502.371 173.788 501.702 173.51 501.208 173.017C500.715 172.524 500.438 171.855 500.438 171.157C500.438 170.459 500.715 169.79 501.208 169.297C501.702 168.804 502.371 168.526 503.068 168.526H535.947C536.645 168.526 537.314 168.804 537.807 169.297C538.301 169.79 538.578 170.459 538.578 171.157C538.578 171.855 538.301 172.524 537.807 173.017C537.314 173.51 536.645 173.788 535.947 173.788H535.948Z" fill="#CCCCCC"/>
<path d="M486.197 181.651H462.169C461.385 181.65 460.633 181.338 460.078 180.783C459.523 180.228 459.211 179.476 459.21 178.691V150.337C459.211 149.552 459.523 148.8 460.078 148.245C460.633 147.69 461.385 147.378 462.169 147.378H486.197C486.982 147.379 487.734 147.691 488.289 148.245C488.843 148.8 489.155 149.552 489.156 150.337V178.691C489.156 179.476 488.844 180.228 488.289 180.783C487.734 181.338 486.982 181.65 486.197 181.651V181.651Z" fill="#CCCCCC"/>
<path d="M535.719 202.064H461.412C460.715 202.064 460.046 201.786 459.552 201.293C459.059 200.8 458.782 200.131 458.782 199.433C458.782 198.735 459.059 198.066 459.552 197.573C460.046 197.08 460.715 196.802 461.412 196.802H535.719C536.417 196.802 537.086 197.08 537.58 197.573C538.073 198.066 538.35 198.735 538.35 199.433C538.35 200.131 538.073 200.8 537.58 201.293C537.086 201.786 536.417 202.064 535.719 202.064V202.064Z" fill="#CCCCCC"/>
<path d="M535.719 215.878H461.412C460.715 215.878 460.046 215.6 459.552 215.107C459.059 214.614 458.782 213.945 458.782 213.247C458.782 212.549 459.059 211.88 459.552 211.387C460.046 210.894 460.715 210.617 461.412 210.617H535.719C536.417 210.617 537.086 210.894 537.58 211.387C538.073 211.88 538.35 212.549 538.35 213.247C538.35 213.945 538.073 214.614 537.58 215.107C537.086 215.6 536.417 215.878 535.719 215.878Z" fill="#CCCCCC"/>
<path d="M535.719 229.682H461.412C460.715 229.682 460.046 229.405 459.552 228.912C459.059 228.419 458.782 227.75 458.782 227.052C458.782 226.354 459.059 225.685 459.552 225.192C460.046 224.699 460.715 224.422 461.412 224.422H535.719C536.417 224.422 537.086 224.699 537.58 225.192C538.073 225.685 538.35 226.354 538.35 227.052C538.35 227.75 538.073 228.419 537.58 228.912C537.086 229.405 536.417 229.682 535.719 229.682V229.682Z" fill="#CCCCCC"/>
<path d="M535.719 243.495H461.412C460.715 243.495 460.046 243.218 459.552 242.725C459.059 242.232 458.782 241.563 458.782 240.865C458.782 240.167 459.059 239.498 459.552 239.005C460.046 238.512 460.715 238.234 461.412 238.234H535.719C536.417 238.234 537.086 238.512 537.58 239.005C538.073 239.498 538.35 240.167 538.35 240.865C538.35 241.563 538.073 242.232 537.58 242.725C537.086 243.218 536.417 243.495 535.719 243.495Z" fill="#CCCCCC"/>
<path d="M535.719 257.302H461.412C460.715 257.302 460.046 257.024 459.552 256.531C459.059 256.038 458.782 255.369 458.782 254.671C458.782 253.973 459.059 253.304 459.552 252.811C460.046 252.318 460.715 252.041 461.412 252.041H535.719C536.417 252.041 537.086 252.318 537.58 252.811C538.073 253.304 538.35 253.973 538.35 254.671C538.35 255.369 538.073 256.038 537.58 256.531C537.086 257.024 536.417 257.302 535.719 257.302Z" fill="#CCCCCC"/>
<path d="M420.791 277.878H574.225C574.434 277.878 574.634 277.795 574.782 277.647C574.93 277.499 575.012 277.299 575.012 277.091C575.012 276.882 574.93 276.682 574.782 276.534C574.634 276.386 574.434 276.304 574.225 276.304H420.791C420.688 276.303 420.586 276.323 420.49 276.362C420.394 276.401 420.307 276.458 420.234 276.531C420.16 276.604 420.102 276.69 420.062 276.785C420.022 276.88 420.001 276.983 420 277.086C419.999 277.189 420.019 277.292 420.058 277.388C420.097 277.483 420.155 277.57 420.227 277.644C420.3 277.717 420.386 277.776 420.482 277.816C420.577 277.856 420.679 277.877 420.783 277.878H420.791Z" fill="#CCCCCC"/>
<path d="M189.005 382.059H384.005C384.27 382.059 384.524 381.954 384.712 381.766C384.899 381.578 385.005 381.324 385.005 381.059C385.005 380.794 384.899 380.539 384.712 380.352C384.524 380.164 384.27 380.059 384.005 380.059H189.005C188.739 380.059 188.485 380.164 188.297 380.352C188.11 380.539 188.005 380.794 188.005 381.059C188.005 381.324 188.11 381.578 188.297 381.766C188.485 381.954 188.739 382.059 189.005 382.059Z" fill="#3F3D56"/>
<path d="M271.611 222.645C291.781 242.506 261.254 271.549 240.389 252.355C220.219 232.495 250.746 203.451 271.611 222.645Z" fill="#6C63FF"/>
<path d="M247.499 245.589C247.209 245.312 247.046 244.936 247.046 244.545C247.046 244.153 247.209 243.778 247.499 243.501L253.316 237.965C253.446 237.842 253.519 237.674 253.519 237.5C253.519 237.325 253.446 237.158 253.316 237.035L247.5 231.499C247.208 231.222 247.045 230.847 247.045 230.455C247.045 230.063 247.209 229.688 247.5 229.411C247.791 229.134 248.185 228.978 248.597 228.978C249.008 228.978 249.403 229.134 249.694 229.411L255.511 234.946C255.641 235.069 255.816 235.139 256 235.139C256.183 235.139 256.359 235.07 256.489 234.946L262.306 229.411C262.597 229.134 262.991 228.978 263.403 228.978C263.814 228.978 264.209 229.134 264.5 229.411C264.791 229.688 264.954 230.063 264.954 230.455C264.954 230.846 264.791 231.222 264.5 231.499L258.683 237.034C258.553 237.158 258.48 237.325 258.48 237.499C258.481 237.674 258.553 237.841 258.683 237.965L264.5 243.5C264.791 243.777 264.954 244.153 264.954 244.544C264.954 244.936 264.791 245.311 264.5 245.588C264.209 245.865 263.814 246.021 263.402 246.021C262.991 246.021 262.596 245.865 262.305 245.588L256.488 240.053C256.358 239.93 256.183 239.861 255.999 239.861C255.816 239.861 255.64 239.93 255.51 240.053L249.693 245.588C249.402 245.865 249.008 246.02 248.596 246.02C248.185 246.02 247.791 245.865 247.499 245.589V245.589Z" fill="white"/>
</g>
<defs>
<clipPath id="clip0">
<rect width="836.004" height="437.462" fill="white"/>
</clipPath>
</defs>
</svg>
