<svg width="952" height="666" viewBox="0 0 952 666" fill="none" xmlns="http://www.w3.org/2000/svg">
<g clip-path="url(#clip0)">
<path d="M42.3849 255.25C43.2948 311.424 64.2902 317.506 90.0735 311.647C119.528 304.954 143.703 283.976 155.618 256.22L163.835 237.078C169.298 224.352 169.482 209.978 164.346 197.116C159.211 184.255 149.177 173.961 136.451 168.498H136.451C130.15 165.793 123.377 164.355 116.521 164.268C109.664 164.18 102.857 165.444 96.4892 167.987C90.1209 170.529 84.3159 174.302 79.4055 179.088C74.4951 183.874 70.5755 189.581 67.8706 195.882C41.4286 206.269 36.2063 227.773 42.3849 255.25Z" fill="#2F2E41"/>
<path d="M208.174 142.19L216.088 128.799C217.054 127.164 217.638 125.331 217.795 123.438C217.951 121.545 217.678 119.641 216.994 117.869C216.31 116.097 215.233 114.503 213.845 113.206C212.457 111.909 210.794 110.944 208.979 110.382V110.382C207.064 109.789 205.035 109.662 203.061 110.012C201.087 110.362 199.225 111.179 197.631 112.395C196.036 113.61 194.756 115.189 193.895 117C193.035 118.811 192.62 120.801 192.684 122.805L193.15 137.199L155.959 239.121L176.24 243.355L208.174 142.19Z" fill="#9F616A"/>
<path d="M12.5158 393.443L2.77509 405.571C1.58562 407.051 0.746932 408.782 0.321966 410.634C-0.102999 412.485 -0.103215 414.409 0.321333 416.26C0.745881 418.111 1.58417 419.843 2.77331 421.324C3.96246 422.805 5.47158 423.998 7.18745 424.812V424.812C8.99854 425.672 10.9889 426.087 12.9927 426.021C14.9965 425.956 16.9556 425.413 18.7069 424.437C20.4581 423.461 21.9508 422.08 23.0604 420.411C24.17 418.741 24.8644 416.83 25.0858 414.837L26.6763 400.523L78.0079 304.94L58.5373 297.86L12.5158 393.443Z" fill="#9F616A"/>
<path d="M72.6978 494.336L74.1315 511.559L74.4678 515.577L169.803 506.408C173.089 506.038 176.242 504.897 179.004 503.079C181.766 501.261 184.061 498.817 185.701 495.946C187.341 493.074 188.281 489.856 188.443 486.553C188.606 483.25 187.987 479.955 186.636 476.937L155.89 410.931L145.27 388.133L99.2486 377.513C61.2986 406.559 95.443 438.615 138.402 471.042C140.084 472.317 141.783 473.591 143.5 474.866L72.6978 494.336Z" fill="#2F2E41"/>
<path d="M40.574 553.975C41.7356 554.141 42.9203 554.006 44.0146 553.582C45.1089 553.159 46.0761 552.461 46.8234 551.557L78.0079 513.807L76.2378 496.106L65.6048 489.727C64.735 489.205 63.7621 488.879 62.7535 488.771C61.7449 488.663 60.7249 488.776 59.7644 489.102C58.8039 489.428 57.9258 489.959 57.1913 490.659C56.4568 491.358 55.8834 492.209 55.511 493.153L35.1715 544.679C34.7916 545.642 34.6347 546.678 34.7124 547.709C34.7902 548.741 35.1007 549.742 35.6206 550.636C36.1405 551.531 36.8562 552.296 37.7141 552.874C38.572 553.452 39.5498 553.829 40.574 553.975V553.975Z" fill="#2F2E41"/>
<path opacity="0.2" d="M67.3876 490.796L69.1576 512.037L74.1315 511.559L164.493 502.868C167.779 502.498 170.931 501.357 173.694 499.539C176.456 497.721 178.751 495.277 180.391 492.406C182.031 489.534 182.971 486.316 183.133 483.013C183.296 479.71 182.676 476.415 181.326 473.397L155.89 416.454V410.931L145.27 388.133L99.2486 377.513C61.2986 406.559 95.443 438.615 138.402 471.042L138.19 471.326L67.3876 490.796Z" fill="black"/>
<path d="M31.7237 546.895C32.8853 547.061 34.07 546.926 35.1643 546.502C36.2586 546.079 37.2258 545.381 37.9731 544.477L69.1576 506.727L67.3876 489.026L56.7546 482.647C55.8848 482.125 54.9118 481.798 53.9032 481.69C52.8947 481.583 51.8747 481.696 50.9141 482.022C49.9536 482.348 49.0756 482.879 48.3411 483.578C47.6066 484.278 47.0332 485.129 46.6608 486.073L26.3213 537.599C25.9414 538.562 25.7844 539.597 25.8622 540.629C25.94 541.661 26.2505 542.661 26.7704 543.556C27.2902 544.45 28.006 545.216 28.8639 545.794C29.7218 546.372 30.6995 546.749 31.7237 546.895V546.895Z" fill="#2F2E41"/>
<path d="M63.8474 487.256L65.6174 508.497L160.953 499.326C164.239 498.955 167.391 497.815 170.154 495.998C172.916 494.18 175.211 491.737 176.852 488.866C178.492 485.995 179.433 482.777 179.597 479.475C179.76 476.172 179.142 472.877 177.793 469.858L152.35 412.914V381.053L90.3983 370.433C50.955 400.619 89.3862 434.06 134.65 467.786L63.8474 487.256Z" fill="#2F2E41"/>
<path d="M124.029 237.678C138.693 237.678 150.58 225.791 150.58 211.127C150.58 196.464 138.693 184.577 124.029 184.577C109.366 184.577 97.4785 196.464 97.4785 211.127C97.4785 225.791 109.366 237.678 124.029 237.678Z" fill="#9F616A"/>
<path d="M88.6282 255.379L125.799 280.16L157.66 273.079L139.96 255.379V228.828L111.639 227.058C111.044 237.66 104.969 247.363 88.6282 255.379Z" fill="#9F616A"/>
<path d="M83.3181 379.283L152.35 388.133L168.281 313.791C175.682 294.057 171.435 276.622 157.733 261.054C157.209 258.434 155.813 256.068 153.773 254.343C151.732 252.618 149.168 251.635 146.497 251.554L139.96 251.839C140.699 275.314 123.404 269.66 97.4785 250.069L94.3481 251.008C90.3012 252.222 86.8268 254.853 84.5607 258.418C82.2945 261.984 81.388 266.247 82.0072 270.426L84.8617 289.694C86.0721 297.333 87.9524 304.85 90.4808 312.159C97.5583 333.312 95.0292 355.704 83.3181 379.283Z" fill="#6C63FF"/>
<path d="M51.4571 299.63L83.3181 310.251L97.4785 258.919L92.6812 256.738C88.7039 254.931 84.1878 254.703 80.0492 256.103C75.9107 257.503 72.4597 260.425 70.3966 264.276L51.4571 299.63Z" fill="#6C63FF"/>
<path d="M145.27 251.839L162.971 271.309L184.211 237.678L157.66 223.518L145.27 251.839Z" fill="#6C63FF"/>
<path d="M93.0534 203.162C109.738 209.454 127.544 208.801 146.155 203.162V181.921H93.0534V203.162Z" fill="#2F2E41"/>
<path d="M921.132 567.779L902.827 575.406L780.798 409.141L692.327 578.457L669.447 573.881L736.563 340.5H814.356L921.132 567.779Z" fill="#2F2E41"/>
<path d="M945.689 606.565C944.674 606.842 943.615 606.915 942.571 606.781C941.528 606.647 940.522 606.307 939.61 605.783L901.008 583.557C899.966 582.957 899.076 582.125 898.407 581.126C897.738 580.127 897.308 578.987 897.151 577.795C896.993 576.603 897.112 575.391 897.498 574.253C897.884 573.114 898.527 572.079 899.377 571.229L902.827 567.779L921.132 566.254L949.114 593.117C950.132 594.094 950.872 595.323 951.259 596.68C951.647 598.037 951.668 599.472 951.319 600.839C950.971 602.206 950.267 603.456 949.277 604.462C948.288 605.468 947.05 606.194 945.689 606.565Z" fill="#2F2E41"/>
<path d="M646.415 612.667C647.43 612.944 648.489 613.017 649.532 612.883C650.575 612.748 651.582 612.409 652.493 611.884L691.096 589.658C692.138 589.058 693.028 588.227 693.697 587.227C694.366 586.228 694.796 585.089 694.953 583.897C695.111 582.705 694.992 581.493 694.606 580.354C694.22 579.215 693.577 578.181 692.727 577.331L689.276 573.881L670.972 572.355L642.99 599.218C641.972 600.195 641.232 601.425 640.844 602.781C640.457 604.138 640.436 605.573 640.784 606.94C641.132 608.308 641.837 609.558 642.826 610.564C643.815 611.57 645.054 612.296 646.415 612.667V612.667Z" fill="#2F2E41"/>
<path d="M684.7 97.9673L677.074 102.543L661.268 76.8601C660.298 75.2827 659.721 73.495 659.586 71.6478C659.451 69.8006 659.762 67.948 660.493 66.2463C661.224 64.5446 662.354 63.0437 663.787 61.8701C665.22 60.6965 666.914 59.8847 668.726 59.5032C670.338 59.1639 672.003 59.1732 673.611 59.5303C675.218 59.8874 676.731 60.5841 678.047 61.5738C679.364 62.5634 680.453 63.823 681.243 65.2682C682.032 66.7134 682.504 68.3107 682.625 69.953L684.7 97.9673Z" fill="#FFB9B9"/>
<path d="M895.973 297.924L899.137 289.612L927.44 300.023C929.178 300.663 930.737 301.711 931.986 303.079C933.234 304.447 934.135 306.096 934.612 307.885C935.09 309.675 935.13 311.553 934.73 313.361C934.329 315.17 933.5 316.855 932.312 318.276V318.276C931.255 319.539 929.94 320.561 928.456 321.275C926.972 321.988 925.352 322.376 923.706 322.412C922.06 322.448 920.424 322.132 918.91 321.484C917.396 320.837 916.038 319.873 914.927 318.658L895.973 297.924Z" fill="#FFB9B9"/>
<path d="M776.222 189.489C788.859 189.489 799.103 179.245 799.103 166.609C799.103 153.972 788.859 143.728 776.222 143.728C763.586 143.728 753.342 153.972 753.342 166.609C753.342 179.245 763.586 189.489 776.222 189.489Z" fill="#FFB9B9"/>
<path d="M796.052 215.42H764.019V180.337L791.476 177.286L796.052 215.42Z" fill="#FFB9B9"/>
<path d="M818.932 349.652H731.987C735.052 301.14 737.48 254.259 731.987 227.623L737.042 203.356C737.743 199.994 739.683 197.018 742.477 195.021C745.271 193.024 748.715 192.152 752.123 192.578L764.019 194.065C772.076 208.229 781.812 208.092 793.001 195.59H807.331C809.241 195.59 811.132 195.972 812.893 196.711C814.655 197.451 816.251 198.535 817.588 199.899C818.926 201.263 819.978 202.88 820.682 204.656C821.387 206.432 821.731 208.33 821.693 210.24C825.426 227.332 826.668 244.874 825.38 262.321L818.932 349.652Z" fill="#3F3D56"/>
<path d="M672.497 97.967L684.7 91.866L750.291 200.167L731.987 227.623L672.497 97.967Z" fill="#3F3D56"/>
<path d="M896.146 302.264L906.575 293.468L851.162 215.819C845.741 208.223 838.267 202.328 829.617 198.826C820.966 195.324 811.497 194.359 802.318 196.044L800.57 196.365L821.523 233.033L849.12 253.928L896.146 302.264Z" fill="#3F3D56"/>
<path d="M802.683 153.102C802.683 153.102 806.959 143.696 795.843 139.42C795.843 139.42 786.437 124.029 767.625 134.29C767.625 134.29 754.798 139.42 754.798 153.102C754.798 166.783 750.523 169.349 750.523 169.349C750.523 169.349 756.89 162.817 758.6 157.686C760.31 152.556 773.61 151.392 778.741 156.522C783.871 161.653 796.698 160.798 796.698 160.798L795.843 179.61C795.843 179.61 800.118 168.494 801.828 168.494C803.539 168.494 805.249 153.102 802.683 153.102Z" fill="#2F2E41"/>
<path d="M800.571 665.128C877.891 665.128 940.571 661.863 940.571 657.836C940.571 653.809 877.891 650.544 800.571 650.544C723.251 650.544 660.571 653.809 660.571 657.836C660.571 661.863 723.251 665.128 800.571 665.128Z" fill="#E6E6E6"/>
<path d="M101.571 661.69C142.44 661.69 175.571 659.965 175.571 657.836C175.571 655.708 142.44 653.982 101.571 653.982C60.7018 653.982 27.5709 655.708 27.5709 657.836C27.5709 659.965 60.7018 661.69 101.571 661.69Z" fill="#E6E6E6"/>
<path d="M666.954 128.289L217.086 168.608C214.877 168.803 212.681 168.114 210.979 166.692C209.277 165.27 208.209 163.232 208.008 161.023L198.007 49.4301C197.812 47.2212 198.5 45.025 199.922 43.3232C201.344 41.6215 203.383 40.5532 205.591 40.3526L655.46 0.0337398C657.669 -0.161614 659.865 0.527161 661.567 1.94897C663.268 3.37078 664.337 5.40953 664.537 7.61798L674.539 119.211C674.734 121.42 674.045 123.616 672.623 125.318C671.202 127.02 669.163 128.088 666.954 128.289V128.289Z" fill="#6C63FF"/>
<path d="M269.655 134.383C289.056 134.383 304.785 118.655 304.785 99.2531C304.785 79.8514 289.056 64.1232 269.655 64.1232C250.253 64.1232 234.525 79.8514 234.525 99.2531C234.525 118.655 250.253 134.383 269.655 134.383Z" fill="white"/>
<path d="M348.374 68.6842C346.829 68.8256 345.404 69.574 344.411 70.7651C343.417 71.9562 342.937 73.4928 343.076 75.0375C343.214 76.5822 343.96 78.0089 345.149 79.0044C346.338 79.9999 347.874 80.483 349.419 80.3474L624.338 55.7082C625.105 55.6406 625.85 55.4225 626.533 55.0664C627.215 54.7104 627.82 54.2233 628.314 53.633C628.808 53.0428 629.181 52.361 629.411 51.6266C629.641 50.8922 629.724 50.1197 629.655 49.3532C629.587 48.5866 629.368 47.8412 629.01 47.1594C628.653 46.4777 628.165 45.873 627.574 45.38C626.984 44.887 626.301 44.5153 625.566 44.2862C624.832 44.0571 624.059 43.9751 623.293 44.0449L348.374 68.6842Z" fill="white"/>
<path d="M351.509 103.674C350.743 103.741 349.996 103.959 349.314 104.315C348.631 104.671 348.026 105.158 347.531 105.748C347.037 106.338 346.664 107.02 346.434 107.755C346.204 108.49 346.121 109.262 346.189 110.029C346.258 110.796 346.477 111.542 346.834 112.224C347.192 112.905 347.68 113.51 348.271 114.003C348.862 114.496 349.545 114.868 350.28 115.097C351.015 115.326 351.788 115.407 352.555 115.337L627.474 90.6979C628.241 90.6303 628.986 90.4122 629.669 90.0561C630.351 89.7001 630.956 89.213 631.45 88.6227C631.944 88.0325 632.317 87.3507 632.547 86.6163C632.777 85.8819 632.86 85.1094 632.791 84.3429C632.723 83.5763 632.503 82.8309 632.146 82.1491C631.789 81.4674 631.301 80.8627 630.71 80.3697C630.119 79.8767 629.437 79.505 628.702 79.2759C627.968 79.0469 627.195 78.9649 626.429 79.0347L351.509 103.674Z" fill="white"/>
<path d="M269.5 131.524C287.449 131.524 302 117.08 302 99.262C302 81.4442 287.449 67 269.5 67C251.551 67 237 81.4442 237 99.262C237 117.08 251.551 131.524 269.5 131.524Z" fill="#6C63FF"/>
<path d="M267.065 111.569C266.339 111.57 265.633 111.335 265.052 110.9L265.016 110.873L257.434 105.073C257.082 104.804 256.787 104.468 256.565 104.085C256.343 103.702 256.199 103.279 256.141 102.84C256.083 102.401 256.112 101.955 256.226 101.527C256.34 101.099 256.538 100.698 256.807 100.347C257.077 99.9954 257.413 99.7006 257.796 99.4791C258.179 99.2577 258.603 99.114 259.042 99.0562C259.481 98.9985 259.927 99.0278 260.354 99.1426C260.782 99.2573 261.183 99.4552 261.534 99.725L266.445 103.491L278.05 88.351C278.594 87.6421 279.396 87.1782 280.282 87.0612C281.167 86.9442 282.063 87.1838 282.772 87.7273L282.773 87.728L282.701 87.828L282.775 87.728C283.483 88.2723 283.947 89.0752 284.063 89.9607C284.18 90.8461 283.941 91.7418 283.398 92.451L269.748 110.251C269.432 110.661 269.026 110.993 268.561 111.221C268.097 111.449 267.586 111.567 267.068 111.565L267.065 111.569Z" fill="white"/>
</g>
<defs>
<clipPath id="clip0">
<rect width="951.571" height="665.128" fill="white"/>
</clipPath>
</defs>
</svg>
